{"accessors":[{"bufferView":2,"componentType":5126,"count":2793,"max":[504.001953125,75.00194549560547,205.4864959716797],"min":[-4.002386569976807,-105.98410034179688,-4.002386569976807],"type":"VEC3"},{"bufferView":2,"byteOffset":33516,"componentType":5126,"count":2793,"max":[1,1,1],"min":[-1,-1,-1],"type":"VEC3"},{"bufferView":1,"componentType":5126,"count":2793,"max":[1,1],"min":[0,0],"type":"VEC2"},{"bufferView":0,"componentType":5125,"count":13032,"type":"SCALAR"},{"bufferView":2,"byteOffset":67032,"componentType":5126,"count":38464,"max":[500.51068115234375,74.09998321533203,203.4019775390625],"min":[-0.9598472118377686,-100.5609130859375,-1.9910420179367065],"type":"VEC3"},{"bufferView":2,"byteOffset":528600,"componentType":5126,"count":38464,"max":[1,1,1],"min":[-1,-1,-1],"type":"VEC3"},{"bufferView":1,"byteOffset":22344,"componentType":5126,"count":38464,"max":[1,1],"min":[0,0],"type":"VEC2"},{"bufferView":0,"byteOffset":52128,"componentType":5125,"count":70656,"type":"SCALAR"}],"asset":{"extras":{"author":"Gu (https://sketchfab.com/nguyenthanhhai1172008)","license":"CC-BY-4.0 (http://creativecommons.org/licenses/by/4.0/)","source":"https://sketchfab.com/3d-models/goal-234de9a0c21142cdada11a6d8a630949","title":"Goal"},"generator":"Sketchfab-12.67.0","version":"2.0"},"bufferViews":[{"buffer":0,"byteLength":334752,"name":"floatBufferViews","target":34963},{"buffer":0,"byteLength":330056,"byteOffset":334752,"byteStride":8,"name":"floatBufferViews","target":34962},{"buffer":0,"byteLength":990168,"byteOffset":664808,"byteStride":12,"name":"floatBufferViews","target":34962}],"buffers":[{"byteLength":1654976,"uri":"data:application/octet-stream;base64,"}],"images":[{"uri":"data:application/octet-stream;base64,"}],"materials":[{"doubleSided":true,"name":"default","pbrMetallicRoughness":{"baseColorFactor":[1,0,0,1],"metallicRoughnessTexture":{"index":0},"roughnessFactor":0.6}}],"meshes":[{"name":"Object_0","primitives":[{"attributes":{"NORMAL":1,"POSITION":0,"TEXCOORD_0":2},"indices":3,"material":0,"mode":4}]},{"name":"Object_1","primitives":[{"attributes":{"NORMAL":5,"POSITION":4,"TEXCOORD_0":6},"indices":7,"material":0,"mode":4}]}],"nodes":[{"children":[1],"matrix":[-1,5.053215392444313e-16,-2.832769343193998e-16,0,-2.832769343193999e-16,2.832769343193999e-16,1,0,5.053215392444312e-16,1,-2.832769343193999e-16,0,499.9984130859375,-1.2056624619570348e-13,30.982101440429688,1],"name":"Sketchfab_model"},{"children":[2,3],"name":"football goal.obj.cleaner.materialmerger.gles"},{"mesh":0,"name":"Object_2"},{"mesh":1,"name":"Object_3"}],"samplers":[{"magFilter":9729,"minFilter":9987,"wrapS":10497,"wrapT":10497}],"scene":0,"scenes":[{"name":"Sketchfab_Scene","nodes":[0]}],"textures":[{"sampler":0,"source":0}]}